<svg width="67" height="66" viewBox="0 0 67 66" fill="none" xmlns="http://www.w3.org/2000/svg">
<g clip-path="url(#clip0)">
<path d="M11.8646 0H55.1354C61.6958 0 67 5.34637 67 11.959V53.8858C67 60.4984 61.6958 65.8448 55.1354 65.8448H11.8646C5.30417 65.8448 0 60.4984 0 53.8858V11.959C0 5.34637 5.30417 0 11.8646 0Z" fill="#470137"/>
<path d="M35.2307 17.3054L26.8557 31.2341L35.7891 46.007C35.8449 46.1195 35.8728 46.2321 35.8449 46.3446C35.817 46.4572 35.7053 46.3728 35.5378 46.4009H29.1449C28.6982 46.4009 28.3911 46.3728 28.1957 46.0914C27.6095 44.9096 26.9953 43.7559 26.4091 42.574C25.8228 41.4203 25.1807 40.2385 24.5107 39.0285C23.8407 37.8186 23.1707 36.6086 22.5007 35.3705H22.4449C21.8586 36.5805 21.2166 37.7904 20.5745 39.0004C19.9324 40.2104 19.2903 41.4203 18.6761 42.6022C18.0341 43.784 17.392 44.994 16.7499 46.1477C16.6382 46.4291 16.4149 46.4572 16.1078 46.4572H9.96613C9.85447 46.4572 9.77072 46.5135 9.77072 46.3728C9.7428 46.2602 9.77072 46.1477 9.82655 46.0633L18.5086 31.7125L10.0499 17.2772C9.96613 17.1647 9.93822 17.0521 9.99405 16.9959C10.0499 16.9114 10.1616 16.8833 10.2732 16.8833H16.6103C16.7499 16.8833 16.8895 16.9114 17.0011 16.9396C17.1128 16.9959 17.1966 17.0803 17.2803 17.1928C17.8107 18.4028 18.4249 19.6128 19.067 20.8227C19.737 22.0327 20.3791 23.2145 21.077 24.3964C21.747 25.5782 22.3611 26.76 22.9474 27.97H23.0032C23.5895 26.7319 24.2036 25.5219 24.8178 24.3401C25.432 23.1583 26.0741 21.9764 26.7161 20.7946C27.3582 19.6128 27.9724 18.4028 28.5866 17.2491C28.6145 17.1365 28.6703 17.024 28.7541 16.9677C28.8657 16.9114 28.9774 16.8833 29.117 16.9114H35.0074C35.147 16.8833 35.2866 16.9677 35.3145 17.1084C35.3424 17.1365 35.2866 17.2491 35.2307 17.3054Z" fill="#FF61F6"/>
<path d="M48.128 46.9918C46.0622 47.02 43.9963 46.5979 42.1259 45.7256C40.3672 44.9096 38.9155 43.5589 37.9105 41.8987C36.8776 40.1822 36.3751 38.0437 36.3751 35.4831C36.3472 33.4008 36.8776 31.3467 37.9105 29.5458C38.9713 27.7167 40.5067 26.1972 42.3492 25.1842C44.3034 24.0868 46.6484 23.5522 49.4122 23.5522C49.5517 23.5522 49.7472 23.5522 49.9984 23.5803C50.2497 23.6085 50.5288 23.6085 50.8638 23.6366V14.7447C50.8638 14.5478 50.9476 14.4352 51.143 14.4352H56.8101C56.9497 14.4071 57.0613 14.5196 57.0892 14.6322C57.0892 14.6603 57.0892 14.6885 57.0892 14.6885V41.4766C57.0892 41.9831 57.1172 42.5459 57.1451 43.165C57.2009 43.7559 57.2288 44.3186 57.2567 44.797C57.2567 44.994 57.173 45.1628 56.9776 45.2472C55.5259 45.8663 53.9905 46.3165 52.4272 46.5979C51.0034 46.8511 49.5797 46.9918 48.128 46.9918ZM50.8638 41.3641V28.983C50.6126 28.9267 50.3613 28.8704 50.1101 28.8423C49.803 28.8142 49.4959 28.786 49.1888 28.786C48.1001 28.786 47.0113 29.0111 46.0342 29.5176C45.0851 29.996 44.2755 30.6995 43.6613 31.5999C43.0472 32.5003 42.7401 33.7103 42.7401 35.1735C42.7122 36.1584 42.8797 37.1432 43.2147 38.0718C43.4938 38.8316 43.9126 39.5069 44.4709 40.0697C45.0013 40.5762 45.6434 40.9701 46.3692 41.1952C47.123 41.4485 47.9047 41.561 48.6863 41.561C49.1051 41.561 49.4959 41.5329 49.8588 41.5048C50.2217 41.5329 50.5288 41.4766 50.8638 41.3641Z" fill="#FF61F6"/>
</g>
<defs>
<clipPath id="clip0">
<rect width="67" height="65.8448" fill="white"/>
</clipPath>
</defs>
</svg>
