<svg width="67" height="67" viewBox="0 0 67 67" fill="none" xmlns="http://www.w3.org/2000/svg">
<path d="M67 55.8333C67 61.975 61.975 67 55.8333 67H11.1667C5.025 67 0 61.975 0 55.8333V11.1667C0 5.025 5.025 0 11.1667 0H55.8333C61.975 0 67 5.025 67 11.1667V55.8333Z" fill="#563D7C"/>
<path d="M18.2061 14.5604H37.2003C40.7036 14.5604 43.5172 15.3595 45.6301 16.9689C47.743 18.5782 48.8049 20.9976 48.8049 24.2491C48.8049 26.2197 48.3232 27.9056 47.3598 29.3069C46.3964 30.7082 45.017 31.803 43.2216 32.5694V32.6788C45.6301 33.1934 47.4583 34.3319 48.6954 36.0945C49.9325 37.868 50.5565 40.0795 50.5565 42.7507C50.5565 44.2834 50.2828 45.7176 49.7355 47.0422C49.1881 48.3779 48.3342 49.5274 47.1628 50.4908C45.9913 51.4542 44.5025 52.2205 42.6742 52.7898C40.8459 53.3591 38.6783 53.6437 36.1603 53.6437H18.2061V14.5604ZM25.0484 30.9272H36.215C37.8572 30.9272 39.2257 30.4674 40.3204 29.5259C41.4152 28.5844 41.9626 27.2488 41.9626 25.4971C41.9626 23.5265 41.4699 22.1362 40.4846 21.337C39.4994 20.5378 38.0761 20.1327 36.215 20.1327H25.0484V30.9272ZM25.0484 48.0604H37.1456C39.2257 48.0604 40.8459 47.5239 41.9845 46.4401C43.134 45.3672 43.7142 43.8345 43.7142 41.864C43.7142 39.9262 43.1449 38.4483 41.9845 37.3973C40.824 36.3463 39.2257 35.8427 37.1456 35.8427H25.0484V48.0604Z" fill="white"/>
</svg>
