<svg width="47" height="67" viewBox="0 0 47 67" fill="none" xmlns="http://www.w3.org/2000/svg">
<g clip-path="url(#clip0)">
<path d="M11.599 67C17.9991 67 23.1935 61.9974 23.1935 55.8334V44.6667H11.599C5.19876 44.6667 0.00439453 49.6694 0.00439453 55.8334C0.00439453 61.9974 5.19876 67 11.599 67Z" fill="#0ACF83"/>
<path d="M0.00439453 33.5C0.00439453 27.336 5.19876 22.3333 11.599 22.3333H23.1935V44.6666H11.599C5.19876 44.6666 0.00439453 39.664 0.00439453 33.5Z" fill="#A259FF"/>
<path d="M0.00488281 11.1667C0.00488281 5.00273 5.19924 6.10352e-05 11.5994 6.10352e-05H23.194V22.3334H11.5994C5.19924 22.3334 0.00488281 17.3307 0.00488281 11.1667Z" fill="#F24E1E"/>
<path d="M23.1938 6.10352e-05H34.7884C41.1886 6.10352e-05 46.383 5.00273 46.383 11.1667C46.383 17.3307 41.1886 22.3334 34.7884 22.3334H23.1938V6.10352e-05Z" fill="#FF7262"/>
<path d="M46.383 33.5C46.383 39.664 41.1886 44.6666 34.7884 44.6666C28.3882 44.6666 23.1938 39.664 23.1938 33.5C23.1938 27.336 28.3882 22.3333 34.7884 22.3333C41.1886 22.3333 46.383 27.336 46.383 33.5Z" fill="#1ABCFE"/>
</g>
<defs>
<clipPath id="clip0">
<rect width="46.3875" height="67" fill="white"/>
</clipPath>
</defs>
</svg>
