<svg width="67" height="67" viewBox="0 0 67 67" fill="none" xmlns="http://www.w3.org/2000/svg">
<rect x="11" y="7" width="45" height="49" fill="white"/>
<g clip-path="url(#clip0)">
<path d="M4.21877 1.21797L8.5672 56.8483C8.63248 57.6837 9.19793 58.3961 9.99672 58.6493L32.8783 65.9039C33.2829 66.0321 33.7173 66.0321 34.122 65.9039L57.0035 58.6493C57.8023 58.3961 58.3678 57.6837 58.433 56.8483L62.7815 1.21797C62.875 0.0219441 61.9298 -1 60.7302 -1H6.27022C5.07065 -1 4.1254 0.0219441 4.21877 1.21797ZM51.6302 18.4782H23.2906L24.1459 26.365H51.0138L49.2562 48.8492L33.5002 53.8445L17.7442 48.8492L16.8259 37.1025H25.0959V42.8644L33.7212 45.1793L42.2949 42.8644L42.9601 33.6816H16.5585L14.8057 11.2564H52.1946L51.6302 18.4782Z" fill="#FC490B"/>
</g>
<defs>
<clipPath id="clip0">
<rect width="67" height="67" fill="white"/>
</clipPath>
</defs>
</svg>
