<svg width="67" height="67" viewBox="0 0 67 67" fill="none" xmlns="http://www.w3.org/2000/svg">
<g clip-path="url(#clip0)">
<path d="M67 2H0V69H67V2Z" fill="#F7DF1E"/>
<path d="M45.0069 52.344C46.3565 54.5475 48.1123 56.1672 51.2177 56.1672C53.8264 56.1672 55.4929 54.8634 55.4929 53.0618C55.4929 50.9029 53.7807 50.1383 50.9093 48.8823L49.3353 48.207C44.7921 46.2714 41.7739 43.8467 41.7739 38.7206C41.7739 33.9987 45.3717 30.4041 50.9944 30.4041C54.9973 30.4041 57.8752 31.7973 59.949 35.4451L55.0463 38.593C53.9668 36.6574 52.8023 35.8949 50.9944 35.8949C49.1503 35.8949 47.9815 37.0648 47.9815 38.593C47.9815 40.4818 49.1513 41.2464 51.8526 42.4163L53.4266 43.0905C58.7759 45.3845 61.7963 47.7231 61.7963 52.981C61.7963 58.6494 57.3434 61.7548 51.3634 61.7548C45.5163 61.7548 41.7388 58.9684 39.8904 55.3164L45.0069 52.344ZM22.7661 52.8895C23.7551 54.6443 24.6548 56.1279 26.818 56.1279C28.8865 56.1279 30.1914 55.3185 30.1914 52.1717V30.7636H36.4873V52.2567C36.4873 58.776 32.6651 61.7431 27.086 61.7431C22.045 61.7431 19.1257 59.1344 17.6411 55.9923L22.7661 52.8895Z" fill="black"/>
</g>
<defs>
<clipPath id="clip0">
<rect width="67" height="67" fill="white"/>
</clipPath>
</defs>
</svg>
