<svg width="88" height="74" viewBox="0 0 88 74" fill="none" xmlns="http://www.w3.org/2000/svg">
<path d="M36.5152 7.73825H41.8549L39.0315 3.21141L33.8495 11.3961H31.4911L37.7941 1.56454C38.0681 1.1673 38.5249 0.927307 39.0315 0.927307C39.5214 0.927307 39.9781 1.15902 40.2439 1.54798L46.5718 11.3961H44.2134L43.1006 9.5672H37.6944L36.5152 7.73825ZM61.0131 9.5672V1.02662H59.0117V10.4031C59.0117 10.6596 59.1114 10.9079 59.3024 11.0982C59.4934 11.2886 59.7508 11.3961 60.0332 11.3961H69.1597L70.3389 9.5672H61.0131ZM27.9036 8.03619C29.8468 8.03619 31.4247 6.47207 31.4247 4.53554C31.4247 2.59902 29.8468 1.02662 27.9036 1.02662H19.1483V11.3961H21.1488V2.85556H27.7707C28.7008 2.85556 29.4482 3.60865 29.4482 4.53554C29.4482 5.46243 28.7008 6.21552 27.7707 6.21552L22.1288 6.20724L28.1029 11.3961H31.0094L26.9901 8.03619H27.9036ZM6.83296 11.3961C3.96045 11.3961 1.62939 9.07893 1.62939 6.21552C1.62939 3.3521 3.96045 1.02662 6.83296 1.02662H12.881C15.7543 1.02662 18.0837 3.3521 18.0837 6.21552C18.0837 9.07893 15.7543 11.3961 12.881 11.3961H6.83296ZM12.7464 9.5672C14.6075 9.5672 16.1147 8.06929 16.1147 6.21552C16.1147 4.36175 14.6075 2.85556 12.7464 2.85556H6.96663C5.10645 2.85556 3.59834 4.36175 3.59834 6.21552C3.59834 8.06929 5.10645 9.5672 6.96663 9.5672H12.7464ZM50.7489 11.3961C47.8756 11.3961 45.5421 9.07893 45.5421 6.21552C45.5421 3.3521 47.8756 1.02662 50.7489 1.02662H57.9322L56.7613 2.85556H50.8818C49.0216 2.85556 47.5102 4.36175 47.5102 6.21552C47.5102 8.06929 49.0216 9.5672 50.8818 9.5672H58.0982L56.919 11.3961H50.7489ZM75.2219 9.5672C73.6855 9.5672 72.3818 8.541 71.9831 7.12585H80.5366L81.7159 5.2969H71.9831C72.3818 3.89003 73.6855 2.85556 75.2219 2.85556H81.093L82.2806 1.02662H75.089C72.2157 1.02662 69.8822 3.3521 69.8822 6.21552C69.8822 9.07893 72.2157 11.3961 75.089 11.3961H81.2591L82.4383 9.5672H75.2219Z" fill="#F80000"/>
<path d="M83.3517 2.12723C83.3517 1.62241 83.7585 1.2169 84.2651 1.2169C84.7801 1.2169 85.1869 1.62241 85.1869 2.12723C85.1869 2.64032 84.7801 3.04584 84.2651 3.04584C83.7585 3.04584 83.3517 2.64032 83.3517 2.12723ZM84.2651 3.30239C84.9129 3.30239 85.4361 2.78102 85.4361 2.13551C85.4361 1.49 84.9129 0.968628 84.2651 0.968628C83.6257 0.968628 83.1025 1.49 83.1025 2.13551C83.1025 2.78102 83.6257 3.30239 84.2651 3.30239ZM84.1572 1.44035C84.3399 1.44035 84.4146 1.44862 84.4977 1.48172C84.7302 1.55621 84.7551 1.7631 84.7551 1.84586C84.7551 1.86241 84.7551 1.90379 84.7385 1.95344C84.7302 2.0031 84.697 2.10241 84.5807 2.17689C84.5641 2.18517 84.5558 2.19344 84.5226 2.20999L84.8216 2.74792H84.5309L84.2651 2.25136H84.0825V2.74792H83.825V1.44035H84.1572ZM84.2486 2.0362C84.3316 2.02793 84.4146 2.02793 84.4644 1.95344C84.4893 1.92034 84.4977 1.88723 84.4977 1.83758C84.4977 1.77137 84.4561 1.71345 84.398 1.68034C84.3399 1.65552 84.2818 1.65552 84.1572 1.65552H84.0825V2.0362H84.2486Z" fill="#F80000"/>
<path d="M10.0459 58.8472H12.2524V49.9341L15.6681 57.7042C16.0711 58.6446 16.6228 58.9775 17.7048 58.9775C18.7869 58.9775 19.3173 58.6447 19.7205 57.7042L23.1362 49.9341V58.847H25.3427V49.9487C25.3427 49.0804 25.0032 48.6609 24.3032 48.444C22.6271 47.9086 21.5026 48.3716 20.9933 49.5291L17.6412 57.1977L14.3953 49.5291C13.9073 48.3716 12.7616 47.9086 11.0856 48.444C10.3854 48.6609 10.0459 49.0806 10.0459 49.9485V58.8472V58.8472ZM27.1773 51.5924H29.3831V56.5029C29.3625 56.7697 29.4668 57.3958 30.6755 57.4151C31.2922 57.4251 35.4348 57.4151 35.4735 57.4151V51.5685H37.6844C37.6945 51.5685 37.6822 59.5418 37.6823 59.5758C37.6944 61.5422 35.2972 61.9693 34.1922 62.0023H27.2251V60.4837C27.2375 60.4837 34.1871 60.4853 34.2046 60.4836C35.6247 60.3301 35.457 59.6081 35.4568 59.365V58.773H30.7669C28.5849 58.7525 27.1956 57.7782 27.1784 56.6577C27.1767 56.5539 27.2254 51.6415 27.1772 51.5922L27.1773 51.5924Z" fill="#00618A"/>
<path d="M39.3849 58.8473H45.7284C46.471 58.8473 47.1923 58.6882 47.7653 58.4131C48.7199 57.9648 49.1867 57.3571 49.1867 56.5611V54.9118C49.1867 54.2606 48.6563 53.6528 47.6166 53.2478C47.0649 53.0306 46.3861 52.9149 45.7284 52.9149H43.0549C42.1642 52.9149 41.7398 52.64 41.6338 52.0324C41.6125 51.96 41.6125 51.902 41.6125 51.8298V50.8026C41.6125 50.7446 41.6125 50.6866 41.6338 50.6144C41.7398 50.1514 41.9733 50.021 42.7582 49.9487C42.8218 49.9487 42.9067 49.9342 42.9704 49.9342H49.2716V48.4296H43.0764C42.1854 48.4296 41.7185 48.4874 41.2943 48.6175C39.9789 49.0372 39.4061 49.7028 39.4061 50.8602V52.1771C39.4061 53.19 40.5306 54.0581 42.4187 54.2606C42.6311 54.275 42.8431 54.2894 43.0551 54.2894H45.3464C45.4315 54.2894 45.5164 54.2894 45.5799 54.304C46.2801 54.362 46.577 54.492 46.7893 54.7525C46.9165 54.8826 46.9589 55.013 46.9589 55.1576V56.4741C46.9589 56.6335 46.8529 56.8362 46.6409 57.0097C46.4498 57.1833 46.1316 57.2991 45.7072 57.3281C45.6224 57.3281 45.5588 57.3426 45.4739 57.3426H39.3848V58.8471L39.3849 58.8473ZM62.9512 56.2284C62.9512 57.7765 64.0756 58.6448 66.3458 58.8184C66.5578 58.8328 66.7702 58.8473 66.9822 58.8473H72.7318V57.3426H66.9398C65.6456 57.3426 65.1577 57.0097 65.1577 56.214V48.4294H62.9512V56.2284ZM50.5949 56.3073V50.9425C50.5949 49.5796 51.5304 48.753 53.3799 48.492C53.5771 48.4632 53.776 48.4487 53.9752 48.4486H58.1634C58.3759 48.4486 58.5675 48.4632 58.78 48.492C60.6296 48.753 61.565 49.5796 61.565 50.9425V56.3071C61.565 57.4127 61.1678 58.0047 60.2522 58.3903L62.4256 60.3971H59.8637L58.1053 58.7734L56.3351 58.8882H53.9752C53.5713 58.8882 53.1462 58.83 52.6783 58.6996C51.2753 58.3082 50.5949 57.5542 50.5949 56.3071V56.3073ZM52.9763 56.1769C52.9763 56.2495 52.9976 56.3219 53.0189 56.4089C53.1464 57.0323 53.7204 57.3803 54.592 57.3803H56.5966L54.7553 55.6798H57.317L58.9232 57.1629C59.219 57.0016 59.4139 56.7548 59.4819 56.4379C59.503 56.3655 59.503 56.2929 59.503 56.2205V51.0733C59.503 51.0153 59.503 50.9427 59.4819 50.8701C59.3543 50.2901 58.7802 49.9568 57.9299 49.9568H54.592C53.6142 49.9568 52.9764 50.3918 52.9764 51.0733V56.1769H52.9763Z" fill="#E48E00"/>
<path d="M74.6728 45.9331C73.3167 45.8955 72.2806 46.0245 71.3949 46.4067C71.1432 46.5153 70.7419 46.5181 70.7008 46.8408C70.8391 46.9891 70.8606 47.2106 70.9706 47.393C71.1819 47.7432 71.5391 48.2123 71.8576 48.4583C72.2057 48.7273 72.5645 49.0146 72.9377 49.2475C73.6014 49.6614 74.3424 49.8978 74.9816 50.3126C75.3582 50.5571 75.7324 50.8651 76.0999 51.141C76.2816 51.2774 76.4037 51.4895 76.6398 51.5751V51.5356C76.5157 51.3741 76.4838 51.1519 76.3699 50.9832L75.8685 50.4703C75.3783 49.8047 74.756 49.2201 74.0945 48.7345C73.567 48.3471 72.3863 47.824 72.1662 47.1958L72.1276 47.1563C72.5016 47.1132 72.9396 46.9747 73.2847 46.8803C73.8646 46.7211 74.3826 46.7622 74.9816 46.604C75.2513 46.5251 75.5214 46.446 75.7915 46.3673V46.2094C75.4888 45.8917 75.273 45.4712 74.9428 45.1837C74.0794 44.4314 73.1368 43.6799 72.1662 43.0533C71.6279 42.7056 70.9626 42.4798 70.3922 42.1852C70.2003 42.0862 69.863 42.0347 69.7364 41.8695C69.4367 41.4788 69.2735 40.9833 69.0423 40.5281C68.5583 39.5746 68.0828 38.533 67.654 37.5296C67.3614 36.8455 67.1703 36.1709 66.8056 35.557C65.0544 32.6117 63.1694 30.8342 60.2494 29.0868C59.6281 28.7152 58.88 28.5683 58.0895 28.3767L56.8169 28.2976C56.5579 28.1869 56.2885 27.863 56.0454 27.7058C55.0781 27.0808 52.5971 25.7209 51.8806 27.5086C51.4282 28.637 52.5567 29.7382 52.9603 30.3099C53.2436 30.711 53.6063 31.1606 53.8087 31.6118C53.9419 31.9083 53.9649 32.2055 54.0788 32.5193C54.3592 33.2921 54.6028 34.1328 54.9657 34.8469C55.149 35.2083 55.3511 35.589 55.5829 35.912C55.725 36.1105 55.9684 36.1978 56.0069 36.504C55.7688 36.845 55.7552 37.374 55.6214 37.8059C55.0186 39.7502 55.2459 42.1665 56.1227 43.6055C56.3918 44.0472 57.0254 44.9946 57.8967 44.6313C58.6589 44.3137 58.4886 43.3296 58.7067 42.4615C58.756 42.2646 58.7256 42.1198 58.8223 41.988V42.0275L59.5164 43.4477C60.0302 44.294 60.9422 45.1786 61.7148 45.7755C62.1155 46.085 62.431 46.6202 62.949 46.8012V46.7617H62.9103C62.81 46.6018 62.6529 46.5353 62.5248 46.4067C62.2229 46.104 61.8873 45.7277 61.6377 45.3809C60.935 44.4049 60.3138 43.3368 59.748 42.2247C59.4778 41.6939 59.2429 41.1079 59.0151 40.5676C58.9273 40.3594 58.9283 40.0444 58.7453 39.9363C58.4958 40.3323 58.1283 40.6525 57.9354 41.1201C57.6268 41.8674 57.5869 42.7787 57.4727 43.7238C57.405 43.7486 57.4349 43.7315 57.3954 43.7632C56.8583 43.6307 56.6694 43.065 56.47 42.5798C55.9648 41.3526 55.8712 39.3765 56.3153 37.9639C56.4304 37.5983 56.95 36.447 56.7397 36.1096C56.6394 35.7726 56.3081 35.5777 56.1227 35.3204C55.8934 35.0021 55.6643 34.5831 55.5056 34.2156C55.0923 33.2587 54.8994 32.1846 54.4644 31.2174C54.2565 30.755 53.9048 30.2871 53.6159 29.876C53.2962 29.4208 52.9381 29.085 52.6904 28.5344C52.6022 28.3388 52.4825 28.0255 52.613 27.8243C52.6548 27.6886 52.7134 27.6318 52.8446 27.5875C53.0684 27.4113 53.6914 27.6462 53.9243 27.7454C54.5429 28.0081 55.059 28.2584 55.5829 28.6133C55.8344 28.784 56.0887 29.1139 56.3927 29.2053H56.7397C57.2827 29.3329 57.8909 29.2448 58.3981 29.4025C59.2946 29.6812 60.098 30.1147 60.8276 30.5861C63.0507 32.0219 64.8682 34.0658 66.1114 36.504C66.3114 36.8965 66.398 37.2712 66.5741 37.6876C66.9296 38.5274 67.3774 39.3914 67.731 40.2126C68.0839 41.0316 68.4278 41.8586 68.9266 42.5404C69.189 42.8988 70.2018 43.0911 70.662 43.2899C70.9848 43.4294 71.5135 43.5748 71.8191 43.7632C72.403 44.1235 72.9686 44.5524 73.5162 44.9469C73.7899 45.1441 74.6311 45.5767 74.673 45.9331H74.6728Z" fill="#00618A"/>
<path fill-rule="evenodd" clip-rule="evenodd" d="M57.4341 30.9017C57.1512 30.8965 56.9513 30.9334 56.7397 30.9805V31.02H56.7784C56.9133 31.3035 57.1512 31.486 57.3182 31.7301C57.4467 32.0064 57.5753 32.2825 57.704 32.5587L57.7425 32.5193C57.9813 32.347 58.0907 32.0716 58.0895 31.6514C57.9938 31.5484 57.9796 31.419 57.8968 31.2962C57.7864 31.1323 57.5731 31.0395 57.4341 30.9017V30.9017Z" fill="#00618A"/>
<path fill-rule="evenodd" clip-rule="evenodd" d="M73.7676 57.2996C73.7676 58.2934 74.5353 58.963 75.3938 58.963C76.2524 58.963 77.0199 58.2934 77.0199 57.2996C77.0199 56.306 76.2524 55.6364 75.3938 55.6364C74.5353 55.6364 73.7678 56.306 73.7678 57.2996H73.7676ZM76.6556 57.2996C76.6556 58.0536 76.0921 58.6171 75.3938 58.6171C74.6871 58.6171 74.132 58.0536 74.132 57.2996C74.132 56.5456 74.687 55.9821 75.3938 55.9821C76.0921 55.9821 76.6556 56.5456 76.6556 57.2996ZM75.832 58.2487H76.196L75.6629 57.4151C75.949 57.384 76.1656 57.2419 76.1656 56.896C76.1656 56.5101 75.9273 56.3505 75.4677 56.3505H74.7435V58.2487H75.0557V57.4283H75.3461L75.832 58.2489V58.2487ZM75.0557 57.1621V56.6166H75.4155C75.6021 56.6166 75.8275 56.6521 75.8275 56.8739C75.8275 57.1398 75.6237 57.1621 75.3894 57.1621H75.0557V57.1621Z" fill="#E48E00"/>
</svg>
