<svg width="111" height="58" viewBox="0 0 111 58" fill="none" xmlns="http://www.w3.org/2000/svg">
<path d="M55.5 57.6618C86.1518 57.6618 111 44.7538 111 28.8309C111 12.908 86.1518 0 55.5 0C24.8482 0 0 12.908 0 28.8309C0 44.7538 24.8482 57.6618 55.5 57.6618Z" fill="#8993BE"/>
<path fill-rule="evenodd" clip-rule="evenodd" d="M15.5854 45.902L21.6679 15.1741H35.7324C41.8144 15.5536 44.8556 18.5881 44.8556 23.8995C44.8556 33.004 37.6333 38.315 31.1705 37.9355H24.3289L22.8083 45.902H15.5854ZM25.849 32.2455L27.7499 20.8646H32.6916C35.3526 20.8646 37.253 22.0026 37.253 24.2786C36.8732 30.728 33.8319 31.866 30.4109 32.2455H25.8495H25.849ZM43.4425 37.9355L49.5246 7.20807H56.7474L55.2268 15.1741H62.0689C68.1513 15.5536 70.432 18.5881 69.6719 22.382L67.011 37.9355H59.4083L62.0693 23.8995C62.4491 22.0026 62.4491 20.8646 59.7886 20.8646H54.0864L50.6653 37.9355H43.4425V37.9355ZM66.524 45.902L72.606 15.1741H86.671C92.7534 15.5536 95.7946 18.5881 95.7946 23.8995C95.7946 33.004 88.5718 38.315 82.1096 37.9355H75.267L73.7464 45.902H66.524V45.902ZM76.7872 32.2455L78.6881 20.8646H83.6302C86.2911 20.8646 88.1916 22.0026 88.1916 24.2786C87.8117 30.728 84.7705 31.866 81.3495 32.2455H76.7876H76.7872Z" fill="#232531"/>
</svg>
