<svg width="67" height="61" viewBox="0 0 67 61" fill="none" xmlns="http://www.w3.org/2000/svg">
<path d="M0.197266 29.9811C0.197266 35.0015 5.10769 39.6879 12.849 42.3297C11.3031 50.0991 12.5721 56.3616 16.8102 58.8016C21.1663 61.3098 27.6562 59.5737 33.816 54.198C39.8204 59.3566 45.8886 61.3866 50.123 58.9396C54.4752 56.4243 55.7987 49.7373 54.2101 41.7251C62.2733 39.0637 66.7836 35.0676 66.7836 29.9811C66.7836 25.0773 61.8643 20.835 54.2271 18.2102C55.9374 9.867 54.4883 3.75661 50.0746 1.21573C45.8195 -1.23396 39.6806 0.901161 33.588 6.19455C27.2495 0.576138 21.1713 -1.13912 16.7623 1.40882C12.5111 3.86556 11.2981 10.2419 12.849 18.1551C5.36887 20.7587 0.197266 25.0971 0.197266 29.9811Z" fill="white"/>
<path d="M52.6099 20.8166C51.9805 20.6011 51.3457 20.4014 50.7062 20.2178C50.8123 19.7875 50.9103 19.3554 51.0004 18.9216C52.4413 11.9383 51.4992 6.31255 48.2817 4.46065C45.197 2.68452 40.1518 4.53642 35.0563 8.96317C34.5542 9.40036 34.0633 9.85016 33.584 10.3121C33.263 10.0049 32.9363 9.70373 32.6041 9.40864C27.264 4.67489 21.9113 2.68034 18.6972 4.53772C15.6154 6.31882 14.7025 11.6078 15.9998 18.2258C16.1289 18.8812 16.2746 19.5332 16.4369 20.1812C15.6795 20.3959 14.948 20.6248 14.2482 20.8683C7.98763 23.0473 3.98926 26.4627 3.98926 30.005C3.98926 33.6639 8.28127 37.3337 14.8025 39.5587C15.3313 39.7383 15.8645 39.9047 16.4015 40.0578C16.2271 40.7559 16.0722 41.4587 15.937 42.1655C14.7002 48.6685 15.6661 53.8321 18.7399 55.6022C21.9147 57.4298 27.243 55.5513 32.4317 51.0234C32.8418 50.6655 33.2534 50.2858 33.6656 49.8879C34.1848 50.388 34.7178 50.8735 35.2641 51.344C40.29 55.6615 45.2535 57.405 48.3247 55.6302C51.4966 53.7971 52.5272 48.25 51.1888 41.501C51.0867 40.9856 50.9677 40.4591 50.8342 39.923C51.2084 39.8127 51.5756 39.6988 51.9339 39.5802C58.7132 37.3379 63.1237 33.7128 63.1237 30.005C63.1237 26.4499 58.9966 23.0116 52.6099 20.8166V20.8166Z" fill="#53C1DE"/>
<path d="M51.1392 37.1865C50.816 37.2933 50.4841 37.3965 50.146 37.4966C49.3975 35.1313 48.3874 32.616 47.1516 30.0177C48.3311 27.4807 49.302 24.9978 50.0296 22.6477C50.6344 22.8227 51.2216 23.0069 51.7875 23.2016C57.2598 25.082 60.5976 27.8627 60.5976 30.0051C60.5976 32.2874 56.9926 35.2502 51.1395 37.1865H51.1392ZM48.7106 41.991C49.3023 44.9753 49.3868 47.6735 48.9948 49.7827C48.6425 51.678 47.9343 52.9415 47.0587 53.4476C45.195 54.5246 41.2095 53.1247 36.9117 49.4323C36.4189 49.0091 35.9225 48.5571 35.4247 48.079C37.091 46.2594 38.7562 44.1442 40.3814 41.7953C43.2403 41.5422 45.9412 41.128 48.3905 40.5629C48.5109 41.0489 48.6182 41.5252 48.7106 41.991V41.991ZM24.1493 53.2616C22.3286 53.9035 20.8784 53.9218 20.002 53.4173C18.1365 52.3434 17.3614 48.197 18.4189 42.6358C18.5447 41.9786 18.6887 41.325 18.8507 40.6758C21.2728 41.2106 23.954 41.5955 26.8197 41.8275C28.4557 44.1259 30.1691 46.2385 31.8958 48.0886C31.5288 48.443 31.1532 48.7884 30.7692 49.1243C28.4748 51.1267 26.1757 52.547 24.1495 53.2616H24.1493ZM15.6194 37.1724C12.7359 36.1884 10.3547 34.9097 8.72238 33.5145C7.25577 32.2604 6.51514 31.0155 6.51514 30.0051C6.51514 27.8556 9.72551 25.1136 15.0798 23.2499C15.7518 23.017 16.4306 22.8038 17.1151 22.6106C17.8552 25.0135 18.8259 27.5259 19.9973 30.0665C18.8107 32.645 17.8262 35.1974 17.0792 37.6286C16.589 37.4885 16.1022 37.3364 15.6194 37.1724V37.1724ZM18.4789 17.7415C17.3674 12.0711 18.1054 7.79379 19.9627 6.72048C21.9412 5.57715 26.3157 7.2075 30.9265 11.2946C31.2211 11.5559 31.5171 11.8294 31.8136 12.1124C30.0958 13.9541 28.3981 16.0508 26.7763 18.3359C23.9951 18.5933 21.3328 19.0066 18.8853 19.5602C18.7345 18.9574 18.599 18.3509 18.4789 17.7412V17.7415ZM43.9867 24.0296C43.4086 23.0327 42.8091 22.0483 42.1885 21.0772C44.0754 21.3149 45.8831 21.6311 47.5805 22.018C47.071 23.6486 46.4358 25.3537 45.6878 27.1016C45.1413 26.0664 44.5742 25.0422 43.9867 24.0296V24.0296ZM33.5846 13.9146C34.7497 15.1748 35.9167 16.582 37.0646 18.1086C34.7361 17.9987 32.4038 17.9982 30.0754 18.107C31.2243 16.5945 32.4012 15.1894 33.5846 13.9146V13.9146ZM23.1158 24.0468C22.5357 25.0514 21.9791 26.0693 21.4466 27.0998C20.711 25.3579 20.0815 23.6452 19.5676 21.9914C21.2548 21.6143 23.054 21.3063 24.9286 21.0725C24.3011 22.0496 23.6967 23.0413 23.1158 24.0468V24.0468ZM24.9826 39.1178C23.0459 38.902 21.2195 38.6096 19.5327 38.2431C20.0549 36.5599 20.6981 34.8105 21.4495 33.0312C21.9843 34.0624 22.5433 35.081 23.126 36.086C23.7206 37.1112 24.3397 38.1221 24.9826 39.1178V39.1178ZM33.6545 46.2738C32.4572 44.9839 31.263 43.5574 30.0966 42.0229C31.2287 42.0673 32.3831 42.0898 33.5564 42.0898C34.7618 42.0898 35.9533 42.0629 37.1261 42.0106C35.9745 43.573 34.8118 45.0017 33.6545 46.2738ZM45.7119 32.9405C46.5023 34.7391 47.1686 36.4792 47.6977 38.1339C45.983 38.5245 44.132 38.839 42.1815 39.0726C42.8065 38.0834 43.4118 37.0818 43.9969 36.0685C44.5918 35.0387 45.1636 33.9958 45.7119 32.9405V32.9405ZM41.8085 34.8086C40.9128 36.3622 39.9666 37.8862 38.9716 39.3783C37.2171 39.5034 35.404 39.568 33.5564 39.568C31.7163 39.568 29.9262 39.5108 28.2023 39.3992C27.1815 37.9106 26.2175 36.3839 25.3123 34.8225C24.4113 33.2694 23.5698 31.6826 22.7894 30.0657C23.5678 28.4484 24.4068 26.8608 25.3047 25.3064V25.3069C26.2023 23.7522 27.1588 22.2321 28.172 20.7498C29.9307 20.6171 31.7338 20.5476 33.5566 20.5476C35.3875 20.5476 37.1931 20.6176 38.9512 20.7514C39.9542 22.2313 40.9045 23.7462 41.8004 25.2931C42.7014 26.844 43.5516 28.4238 44.3497 30.03C43.5598 31.6525 42.7123 33.2464 41.8088 34.8086H41.8085ZM47.0199 6.6455C49 7.78569 49.7702 12.3833 48.5261 18.4127C48.4445 18.8055 48.3559 19.1968 48.2602 19.5863C45.8069 19.0212 43.1427 18.6006 40.3534 18.3393C38.7285 16.0294 37.0449 13.929 35.3548 12.1111C35.7977 11.6848 36.2511 11.2696 36.7147 10.8658C41.0805 7.07268 45.1608 5.57506 47.0199 6.6455V6.6455Z" fill="white"/>
<path d="M33.5564 24.7334C36.4728 24.7334 38.8368 27.0937 38.8368 30.0051C38.8368 32.9167 36.4728 35.2771 33.5564 35.2771C30.6401 35.2771 28.2759 32.9167 28.2759 30.0051C28.2759 27.0937 30.6401 24.7334 33.5564 24.7334" fill="#53C1DE"/>
</svg>
