<svg width="44" height="67" viewBox="0 0 44 67" fill="none" xmlns="http://www.w3.org/2000/svg">
<g clip-path="url(#clip0)">
<path d="M43.3801 39.98L43.3799 39.9804C42.1477 33.7819 38.3889 28.5017 33.2264 25.278C33.2259 25.278 33.2247 25.277 33.2243 25.2768L33.2185 25.2733C33.2168 25.2722 33.2151 25.2711 33.2133 25.2701C32.7337 24.9711 32.2429 24.6905 31.7422 24.4288L17.9103 17.4518V17.4522V17.4518L17.9107 17.4515L17.167 17.0764C17.1236 17.0553 17.0804 17.0338 17.0373 17.012H17.0372C17.0342 17.0103 17.0313 17.0088 17.0282 17.0073H17.0281C17.0249 17.0057 17.0218 17.0041 17.0186 17.0025L17.0106 16.9983L17.0094 16.9976L17.0018 16.9938L17.0001 16.9928L16.9933 16.9894L16.9907 16.9881L16.9852 16.9852C16.9839 16.9846 16.9826 16.984 16.9814 16.9833L16.9776 16.9814C16.9756 16.9804 16.9739 16.9797 16.9722 16.9785C15.5364 16.236 14.3111 15.1393 13.4108 13.7909C12.3944 12.2683 11.8017 10.4356 11.8017 8.46352C11.8016 4.79894 13.85 1.61617 16.8574 0.0101929L12.3931 2.30565C5.04519 5.99578 0 13.634 0 22.4584L0.331428 26.3302H0.3316L0.331428 26.3293L0.348583 26.335L0.3316 26.3302C1.53552 33.3205 5.94187 39.2052 11.9772 42.3963L11.9779 42.3968L11.9856 42.401L11.9873 42.4017C11.9897 42.4029 11.9925 42.4048 11.9947 42.4058C11.9982 42.408 12.0019 42.41 12.0057 42.4117L12.0287 42.4239L12.0316 42.4255L12.0374 42.4286L12.0416 42.431L12.047 42.4338L12.0513 42.436L12.0565 42.4388L12.062 42.4419L12.0659 42.4438C12.0692 42.4454 12.0725 42.4471 12.0757 42.449L13.4626 43.1486C13.4609 43.1448 13.4596 43.1407 13.458 43.1365L13.4632 43.149L13.4626 43.1486L13.4628 43.1491L15.1131 43.9812L26.6508 49.8009C29.8256 51.3501 32.0163 54.6235 32.0163 58.4129V58.4787C32.0159 58.4814 32.0159 58.4844 32.0159 58.4873V58.5008L32.0158 58.5059V58.5227L32.0156 58.5272V58.5393L32.0154 58.5444V58.5479L32.0151 58.5674V58.5691C31.9761 61.037 31.0076 63.2781 29.4467 64.953C28.7284 65.7245 27.8882 66.3712 26.9601 66.8669L29.827 65.3933L31.425 64.5728C38.7721 60.8817 43.818 53.243 43.818 44.418L43.3801 39.98" fill="#7CBA3D"/>
<path d="M0 22.4583C0 13.6341 5.04519 5.99578 12.3931 2.30548L16.8576 0.0101929C13.8503 1.61634 11.8016 4.79894 11.8016 8.46335C11.8016 10.4356 12.3944 12.2683 13.4108 13.7909C11.8981 17.6008 11.0178 21.51 10.7213 25.4002C8.7545 26.4007 6.58119 26.9211 4.37736 26.9192C4.15898 26.9192 3.93991 26.914 3.71965 26.9037C2.57129 26.8516 1.43351 26.6591 0.331428 26.3302L0 22.4583ZM32.0166 58.4226V58.4129V58.4226ZM32.0166 58.4333V58.425V58.4333ZM32.0163 58.4443L32.0166 58.4348L32.0163 58.4443ZM32.0163 58.4543V58.4467V58.4543ZM32.0163 58.4655V58.4564V58.4655ZM32.0163 58.4754V58.4685V58.4754ZM32.0163 58.4873V58.4787V58.4873ZM32.0163 58.4963V58.4909V58.4961V58.4963ZM32.0159 58.5063L32.0161 58.5009V58.5061L32.0159 58.5063ZM32.0159 58.5179V58.5132V58.5179ZM32.0158 58.5273L32.0159 58.5229L32.0158 58.5273ZM32.0158 58.5394V58.5349V58.5394ZM32.0156 58.5481V58.5446V58.5481ZM32.0154 58.5691V58.5674V58.5691Z" fill="#C5D83E"/>
<path d="M13.4631 43.1486L12.0758 42.4486C12.0726 42.4467 12.0693 42.445 12.066 42.4434L12.0621 42.4415L12.0564 42.4384L12.0513 42.4356C12.05 42.4348 12.0486 42.434 12.0472 42.4334C12.0454 42.4324 12.0435 42.4315 12.0417 42.4306L12.0375 42.4282L12.0317 42.4251L12.0288 42.4236L12.0058 42.4115C12.002 42.4098 11.9983 42.4079 11.9948 42.4056L11.9876 42.4013L11.9857 42.4006L11.978 42.3965L11.9773 42.3959C5.94181 39.2047 1.53546 33.3196 0.331543 26.3289C1.43362 26.6579 2.5714 26.8505 3.71976 26.9026C3.9402 26.913 4.15909 26.918 4.37747 26.918C6.58131 26.9198 8.75461 26.3995 10.7214 25.399C10.2554 31.5184 11.2328 37.5896 13.4633 43.1486" fill="url(#paint0_linear)"/>
<path d="M17.9105 17.4511L17.1669 17.076C17.1235 17.055 17.0802 17.0335 17.0372 17.0116H17.037C17.0341 17.01 17.0311 17.0084 17.0281 17.007H17.0279C17.0248 17.0054 17.0216 17.0037 17.0185 17.0021L17.0104 16.998L17.0092 16.9973L17.0017 16.9935L17 16.9925L16.9931 16.989L16.9905 16.9878L16.985 16.9849C16.9838 16.9843 16.9825 16.9836 16.9813 16.983L16.9775 16.9811C16.9754 16.98 16.9737 16.9793 16.972 16.9781C15.5362 16.2356 14.3109 15.1389 13.4107 13.7905C11.898 17.6005 11.0176 21.5097 10.7212 25.3999C13.2929 24.0912 15.4074 22.0252 16.7831 19.4769L17.9105 17.4511V17.4511ZM43.3799 39.9797C38.1163 43.4834 31.8216 45.5142 25.097 45.5142C24.5849 45.5142 24.0703 45.5024 23.5537 45.4784C20.6878 45.3474 17.8508 44.844 15.1131 43.9809L26.6507 49.8006C29.8255 51.3497 32.0161 54.6231 32.0161 58.4125V58.4783C32.0158 58.4811 32.0158 58.484 32.0158 58.4869V58.5004L32.0156 58.5056V58.5223L32.0154 58.5268V58.5389L32.0153 58.5441V58.5475L32.0149 58.567V58.5688C31.976 61.0367 31.0074 63.2778 29.4465 64.9526C28.7282 65.7242 27.888 66.3709 26.96 66.8666L29.8269 65.393L31.4248 64.5725C38.772 60.8813 43.8179 53.2426 43.8179 44.4176L43.3799 39.9797V39.9797Z" fill="url(#paint1_linear)"/>
<path d="M25.0972 45.5142C24.585 45.5142 24.0704 45.5024 23.5538 45.4784C20.6879 45.3474 17.8509 44.844 15.1132 43.9809L13.4629 43.1488C11.2325 37.5898 10.255 31.5187 10.7211 25.4C13.2927 24.0913 15.4072 22.0253 16.7829 19.4771L17.9103 17.4515L31.7421 24.4285C32.2446 24.6911 32.7371 24.9728 33.2184 25.273L33.2243 25.2764L33.2263 25.2776C38.3888 28.5013 42.1476 33.7816 43.3798 39.98C38.1166 43.4833 31.8219 45.5142 25.0971 45.5142" fill="url(#paint2_linear)"/>
</g>
<defs>
<linearGradient id="paint0_linear" x1="2.64706" y1="29.3547" x2="-1.28454" y2="38.498" gradientUnits="userSpaceOnUse">
<stop stop-color="#AACE36"/>
<stop offset="1" stop-color="#2FA042"/>
</linearGradient>
<linearGradient id="paint1_linear" x1="10.7212" y1="29.8789" x2="44.2759" y2="33.0416" gradientUnits="userSpaceOnUse">
<stop stop-color="#79A933"/>
<stop offset="0.13" stop-color="#70A333"/>
<stop offset="0.34" stop-color="#559332"/>
<stop offset="0.58" stop-color="#277B2F"/>
<stop offset="0.86" stop-color="#005F27"/>
<stop offset="1" stop-color="#005020"/>
</linearGradient>
<linearGradient id="paint2_linear" x1="15.129" y1="17.4515" x2="28.0148" y2="47.1333" gradientUnits="userSpaceOnUse">
<stop stop-color="#79AB35"/>
<stop offset="0.53" stop-color="#7CBA3D"/>
<stop offset="1" stop-color="#00AA4B"/>
</linearGradient>
<clipPath id="clip0">
<rect width="43.916" height="67" fill="white"/>
</clipPath>
</defs>
</svg>
