<svg width="448" height="503" viewBox="0 0 448 503" fill="none" xmlns="http://www.w3.org/2000/svg">
<path d="M400 23H48C21.5 23 0 44.5 0 71V423C0 449.5 21.5 471 48 471H400C426.5 471 448 449.5 448 423V71C448 44.5 426.5 23 400 23ZM351.1 181.8C351.3 184.6 351.3 187.5 351.3 190.3C351.3 277 285.3 376.9 164.7 376.9C127.5 376.9 93 366.1 64 347.5C69.3 348.1 74.4 348.3 79.8 348.3C110.5 348.3 138.7 337.9 161.2 320.3C132.4 319.7 108.2 300.8 99.9 274.8C110 276.3 119.1 276.3 129.5 273.6C99.5 267.5 77 241.1 77 209.2V208.4C85.7 213.3 95.9 216.3 106.6 216.7C97.6043 210.716 90.2298 202.599 85.1347 193.072C80.0396 183.544 77.3823 172.904 77.4 162.1C77.4 149.9 80.6 138.7 86.3 129C118.6 168.8 167.1 194.8 221.5 197.6C212.2 153.1 245.5 117 285.5 117C304.4 117 321.4 124.9 333.4 137.7C348.2 134.9 362.4 129.4 375 121.9C370.1 137.1 359.8 149.9 346.2 158C359.4 156.6 372.2 152.9 384 147.8C375.1 160.9 363.9 172.5 351.1 181.8Z" fill="#631F48"/>
</svg>
